# xmcd
#
# Track frame offsets: 
#        150
#        21721
#        39613
#        56215
#        77638
#        95130
#        114859
#        129988
#        140729
#        157947
#
# Disc length: 2275 seconds
#
# Revision: 0
# Processed by: cddbd v1.5.2PL0 Copyright (c) Steve Scherf et al.
# Submitted via: ExactAudioCopy v0.95b4
#
DISCID=8808e10a
DTITLE=Moonshine Racers - Skyline Motel
DYEAR=2006
DGENRE=Bluegrass
TTITLE0=November Rain
TTITLE1=Hard to Say
TTITLE2=Big Hiway
TTITLE3=Hobo's Prayer
TTITLE4=Breakdown
TTITLE5=Haley's Ride
TTITLE6=Noting but a Memory
TTITLE7=Did you say you Love Me?
TTITLE8=Pain is Never free
TTITLE9=Waistin Time
EXTD=
EXTT0=
EXTT1=
EXTT2=
EXTT3=
EXTT4=
EXTT5=
EXTT6=
EXTT7=
EXTT8=
EXTT9=
PLAYORDER=
